<svg xmlns="http://www.w3.org/2000/svg" width="120" height="120" viewBox="0 0 120 120">
  <defs>
    <style>
      .cls-1 {
        fill: #00aff0;
        fill-rule: evenodd;
      }
    </style>
  </defs>
  <path id="Aircrafts.svg" class="cls-1" d="M974,4185a60,60,0,1,1-60,60A60,60,0,0,1,974,4185Zm0,1a59,59,0,1,1-59,59A59.006,59.006,0,0,1,974,4186Zm-12.632,34.03,5.423,14.64a0.983,0.983,0,0,0,.14.26,1,1,0,0,0,1.736-.94l-5.271-14.24,1.8,0.01a1.549,1.549,0,0,1,.9.42l13.161,15.12a1.006,1.006,0,0,0,1.409.1,0.984,0.984,0,0,0,.1-1.4l-13.16-15.12a3.441,3.441,0,0,0-2.4-1.1l-2.241-.02a1.694,1.694,0,0,0-1.427.7A1.672,1.672,0,0,0,961.368,4220.03Zm15.739,50.26,9.1-20.03,13.724-.12c4.262,0.02,7.712-1.75,8-4.1a2.851,2.851,0,0,0,.01-0.86,3.831,3.831,0,0,0-.88-1.88c-1.82-2.41-6.74-6.07-10-6.09l-30.163.04c-0.872-.01-6.532.06-11.361,0.46l-7.067-7.1a3.781,3.781,0,0,0-2.406-1.01l-2.241-.01a1.663,1.663,0,0,0-1.643,2.24l2.475,7.52a1.466,1.466,0,0,0-1,.88,3.481,3.481,0,0,0,.788,3.2,5.242,5.242,0,0,0,.422.5c4.444,4.46,15.67,6.19,17.623,6.2l5.384,0.03a2.508,2.508,0,0,1,1.913,1.01,2.293,2.293,0,0,1,.3.49l0.446,18.13a2.1,2.1,0,0,0,2.017,1.97l2.24,0.01A2.692,2.692,0,0,0,977.107,4270.29Zm-2.315-.51-2.271-.04-0.45-18.32-0.055-.3a4.426,4.426,0,0,0-4.07-2.95l-5.45-.03c-1.586-.01-12.211-1.59-16.211-5.61a2.215,2.215,0,0,1-.25-0.29,2.532,2.532,0,0,1-.508-1.04,4.418,4.418,0,0,1,.488-0.04l1.32-.05-3.135-9.53,1.854,0.01a1.817,1.817,0,0,1,1,.41l7.729,7.77,0.468-.04c4.848-.43,10.756-0.5,11.648-0.5l30.163-.03c2.233,0.01,6.7,3.04,8.413,5.29a2.307,2.307,0,0,1,.48.86l0.02,0.14a0.982,0.982,0,0,1-.02.28c-0.12.99-2.52,2.4-6.025,2.38l-15.017.13-9.621,21.19A0.714,0.714,0,0,1,974.792,4269.78Zm21.661-25.95a1.343,1.343,0,0,0,.274.71,1.3,1.3,0,0,0,.234.24c1,0.85,3.849.73,5.459,0.58a0.989,0.989,0,1,0-.18-1.97,13.839,13.839,0,0,1-3.9-.09A1,1,0,0,0,996.453,4243.83Z" transform="translate(-914 -4185)"/>
</svg>
