<svg xmlns="http://www.w3.org/2000/svg" width="120" height="120" viewBox="0 0 120 120">
  <defs>
    <style>
      .cls-1 {
        fill: #36c0f3;
        fill-rule: evenodd;
      }
    </style>
  </defs>
  <path id="Destination.svg" class="cls-1" d="M650,4185a60,60,0,1,1-60,60A60,60,0,0,1,650,4185Zm0,1a59,59,0,1,1-59,59A59,59,0,0,1,650,4186Zm-0.748,70.61a1,1,0,0,0,.744.33h0a0.975,0.975,0,0,0,.745-0.34c0.344-.39,8.457-9.69,12.934-19.96a14.967,14.967,0,0,0,1.484-6.5,15.219,15.219,0,0,0-30.437,0,14.893,14.893,0,0,0,1.448,6.47C640.665,4246.91,648.9,4256.22,649.252,4256.61Zm0.693-39.62a13.2,13.2,0,0,1,13.223,13.15,13.042,13.042,0,0,1-1.3,5.67c-3.588,8.23-9.751,16.03-11.874,18.59-2.149-2.56-8.4-10.36-12-18.63a12.908,12.908,0,0,1-1.267-5.63A13.2,13.2,0,0,1,649.945,4216.99Zm0,20.21a7.23,7.23,0,1,0-7.219-7.23A7.231,7.231,0,0,0,649.944,4237.2Zm0-12.46a5.23,5.23,0,1,1-5.224,5.23A5.236,5.236,0,0,1,649.944,4224.74Zm25.956,42.94-5.986-22.97a1,1,0,0,0-.594-0.68l-4.988-2-0.741,1.86,4.52,1.81,5.3,20.35-10-5.01a1.006,1.006,0,0,0-.864-0.01l-12.55,5.8-12.55-5.8a1.006,1.006,0,0,0-.864.01l-10,5.01,5.3-20.35,4.52-1.81-0.741-1.86-4.988,2a1,1,0,0,0-.594.68l-5.986,22.97a1,1,0,0,0,1.412,1.14l11.541-5.78,12.533,5.8a1.016,1.016,0,0,0,.836,0l12.533-5.8,11.541,5.78a1.009,1.009,0,0,0,.446.11,0.992,0.992,0,0,0,.629-0.23A0.982,0.982,0,0,0,675.9,4267.68Z" transform="translate(-590 -4185)"/>
</svg>
