<svg xmlns="http://www.w3.org/2000/svg" width="175" height="43" viewBox="0 0 175 43">
  <defs>
    <style>
      .cls-1 {
        fill: #112a80;
        fill-rule: evenodd;
      }
    </style>
  </defs>
  <path id="UtairLogo.svg" class="cls-1" d="M708.29,5336.3L693,5367H681c4.8-9.4,9.8-18.78,14.6-28.18a6.06,6.06,0,0,1,1.21-1.61,5.142,5.142,0,0,1,2.51-.91h8.967Zm-35.67,16.12a15.731,15.731,0,0,0-3.49.53,13.629,13.629,0,0,0-2.942,1.12,7.117,7.117,0,0,0-1.876,1.42,5.989,5.989,0,0,0-1.15,1.77,1.912,1.912,0,0,0-.006,1.86,2.108,2.108,0,0,0,1.755.65,6.081,6.081,0,0,0,4.117-1.93,34.288,34.288,0,0,0,3.592-5.42h0Zm-6.381-15.44a6.269,6.269,0,0,1,2.687-.78l10.481,0.01a19.271,19.271,0,0,1,4.522.46c2.493,0.62,3.848,1.96,4.143,4.42a9.185,9.185,0,0,1-.857,4.55,11.909,11.909,0,0,1-.781,1.79c-0.382.62-8.077,15.42-10.434,19.57H665s2.778-5.09,2.941-5.36l-0.334-.02s-4.979,5.33-11.384,5.38a7.37,7.37,0,0,1-3.227-.59,3.75,3.75,0,0,1-1.8-1.85,5.649,5.649,0,0,1-.485-2.75,9.948,9.948,0,0,1,.829-3.43,14.724,14.724,0,0,1,1.86-3.21,16.05,16.05,0,0,1,2.661-2.74,17.92,17.92,0,0,1,3.07-1.96,25.914,25.914,0,0,1,3.746-1.52,39.044,39.044,0,0,1,5.621-1.28,63.44,63.44,0,0,1,6.927-.71c0.778-1.24.883-1.47,0.884-2.32a1.511,1.511,0,0,0-1.632-1.2c-0.685,0-12.592.35-12.54,0.25l2.229-4.34a9.521,9.521,0,0,1,1.87-2.37h0Zm20.323-11.07a1.4,1.4,0,0,0-1.332-1.91l-63.927.15a7.093,7.093,0,0,0-5.962,3.35l-16.328,30.12a7.088,7.088,0,0,1-5.969,3.33l-4.965-.01a2.181,2.181,0,0,1-1.835-3.32l16.367-30.22a2.2,2.2,0,0,0-1.877-3.24h-14.4a6.445,6.445,0,0,0-5.684,3.48c-1.068,1.88-20.249,34.67-20.249,34.67-1.214,2.01.68,4.67,2.6,4.69h38a8.007,8.007,0,0,0,6.415-3.75l16.274-30.12c1.406-2.59,2.929-3.39,5.994-3.39h4.225a2.188,2.188,0,0,1,1.847,3.39l-15.865,29.24c-0.994,1.83,1.062,4.62,3.11,4.63h12c2.469,0,5.864-1.94,6.918-3.89l16.186-29.97c1.684-3.11,2.941-3.4,5.947-3.4l19.1-.06a2.172,2.172,0,0,0,2.013-1.24l1.4-2.53h0Zm15.131-.85a2.267,2.267,0,0,1,2.014-1.04c1.111,0,7.264.03,7.945,0.02a1.379,1.379,0,0,1,1.192,2.07c-0.383.8-2.451,5.07-2.705,5.5A3.258,3.258,0,0,1,708,5333h-8c-1.384,0-1.384-1.72-1.056-2.38,0.606-1.21,2.749-5.56,2.749-5.56h0ZM710,5367H698s12.914-25.36,14.4-28.33a3.625,3.625,0,0,1,3.773-2.36h7.175s-3.728,7.48-3.891,7.76l0.334,0.01s5.043-8.03,11.823-8.24c2.685-.08,5.764,3.26.542,7.65-3.646-.74-10.715.85-14.376,7.65-1.049,1.95-7.456,15.41-7.456,15.41Z" transform="translate(-560 -5324)"/>
</svg>
